<svg xmlns="http://www.w3.org/2000/svg" viewBox="0 0 78.50692 56.98144">
  <defs>
    <style>
      .cls-1 {
        stroke: #000;
        stroke-miterlimit: 10;
        stroke-width: 0.5px;
      }
    </style>
  </defs>
  <g id="Layer_2" data-name="Layer 2">
    <g id="Layer_3" data-name="Layer 3">
      <path class="cls-1" d="M1.27809,30.17685a34.3932,34.3932,0,0,1,9.19149-3.9149,43.19114,43.19114,0,0,1,10.12766-1.19148,80.84993,80.84993,0,0,1,10.55319.34042c6.33609.59318,6.23357,1.24848,10.89362,1.53192,4.67.284,8.60968.52367,12.93617-1.44681a16.73145,16.73145,0,0,0,7.06383-5.70212,13.611,13.611,0,0,0,2.7234-9.87235A11.52522,11.52522,0,0,0,60.34191,2.262a11.71258,11.71258,0,0,0-9.617-1.617C49.399.96654,44.87007,2.065,43.40576,6.00664c-.74207,1.99746-.85573,5.15207,1.10636,6.97873,2.13187,1.98471,5.90085,1.64444,6.29789.766.0925-.20468.20628-.89064.0851-.93617a.07082.07082,0,0,0-.0573.01311c-.2022.12619-4.57213.33284-5.815-2.48119-1.02993-2.33183.87231-4.96046,2.46807-6.12767A7.7133,7.7133,0,0,1,52.93766,3.113,9.9549,9.9549,0,0,1,58.81,5.41089a10.19459,10.19459,0,0,1,3.31915,7.234c.17371,6.12787-5.54489,9.82749-6.29788,10.29788-1.12949.70557-3.35213,1.8562-8.766,2.12766-6.7331.33761-9.05768-1.15319-16.85106-2.21277a56.32275,56.32275,0,0,0-17.2766-.25531A44.57177,44.57177,0,0,0,.25681,26.68749a5.53524,5.53524,0,0,0,1.02128,3.48936Z"/>
      <path class="cls-1" d="M1.4483,22.34707a15.60051,15.60051,0,0,1,6.89361-4.17022c1.96135-.53729,2.50577-.21056,6.97873-.68085,3.968-.4172,5.95194-.62579,7.65958-1.3617a15.34147,15.34147,0,0,0,6.63829-5.70213c1.96362-2.96979,2.73561-6.33836,2.29788-6.55319-.42465-.20841-1.54158,2.7702-5.02128,6.12766-1.614,1.55725-4.60361,4.37148-8.85106,5.02127a26.18765,26.18765,0,0,1-3.06383.17022c-3.75237.09873-5.10846-.2537-6.80852-.17022a12.99959,12.99959,0,0,0-7.234,2.89362A3.814,3.814,0,0,0,.4483,19.94281,3.87507,3.87507,0,0,0,1.4483,22.34707Z"/>
      <path class="cls-1" d="M2.29937,39.02791a42.68347,42.68347,0,0,1,17.02127-4.93617A45.61046,45.61046,0,0,1,35.576,36.04919c10.40394,3.01884,10.45537,6.56629,16.17021,6.29788,6.01038-.28231,6.8307-4.24736,17.19148-6.97873,5.43039-1.4316,9.34207-1.433,9.31915-1.70213-.03022-.355-6.99234-1.58575-14.55319.89362-4.4084,1.44561-6.82275,3.52305-11.36171,3.19149-2.13958-.15629-3.07882-.72569-7.40425-2.42553-1.40382-.55169-7.96582-3.10936-12.383-4.34042a42.65053,42.65053,0,0,0-17.617-1.40426A39.35723,39.35723,0,0,0,1.78872,33.92153a6.09476,6.09476,0,0,0,.51065,5.10638Z"/>
      <path class="cls-1" d="M4.51212,46.77259a56.47181,56.47181,0,0,1,10.89364-4.17021,22.33305,22.33305,0,0,1,7.91488-.85106c3.93715.332,5.06945,1.60086,5.3617,1.95744a5.29727,5.29727,0,0,1,1.02128,4c-.38563,2.03983-2.05945,3.11653-3.82979,4.25533-.7113.45755-6.47283,4.16374-9.617,1.95744a3.24166,3.24166,0,0,1-1.3617-2.04256,3.505,3.505,0,0,1,1.87234-3.31913c1.28491-.6877,2.65089-.25293,2.7234-.59575.052-.24594-.607-.67812-1.27659-.85106-1.6326-.42165-3.43135.67114-4.42554,1.78723-1.20769,1.35576-2.16688,3.79968-1.19148,5.617,1.14783,2.13858,4.31662,2.18349,6.383,2.21277a15.19686,15.19686,0,0,0,10.21277-4c1.55011-1.45052,3.49621-3.27161,3.57446-5.95746.10172-3.49138-3.025-5.96591-3.65958-6.46808-4.6399-3.672-11.13832-2.48762-15.91488-1.617a38.52423,38.52423,0,0,0-9.87235,3.234,4.1339,4.1339,0,0,0,1.19148,4.85106Z"/>
    </g>
  </g>
</svg>
