<svg xmlns="http://www.w3.org/2000/svg" viewBox="0 0 36.12153 108.0012">
  <defs>
    <style>
      .cls-1 {
        stroke: #000;
        stroke-miterlimit: 10;
        stroke-width: 0.5px;
      }
    </style>
  </defs>
  <g id="Layer_2" data-name="Layer 2">
    <g id="Layer_5" data-name="Layer 5">
      <path class="cls-1" d="M16.56625,107.73972c-2.39392.143-7.70875-1.02064-11.91489-5.10639C-1.04978,97.09539.09465,88.88544.99179,84.50568c1.44931-7.07544,3.62886-7.364,7.91489-17.617A116.67262,116.67262,0,0,0,15.545,43.90992c1.99338-9.58152,2.51578-13.74916,2.80852-20.42554.11125-2.53731.64343-7.91489.42552-15.48935-.16981-5.90217-.90776-7.721-.68085-7.74468C18.6859.189,20.397,8.12489,20.90668,14.29291,22.08835,28.593,21.446,30.331,22.94923,40.33545a118.04494,118.04494,0,0,0,6.383,23.74469c3.48731,9.26334,5.97078,12.47159,6.383,19.91489.22116,3.99356.68793,10.36979-2.6383,15.57447C27.72733,107.94019,17.447,107.68711,16.56625,107.73972Z"/>
    </g>
  </g>
</svg>
