<svg xmlns="http://www.w3.org/2000/svg" viewBox="0 0 35.16297 111.1568">
  <defs>
    <style>
      .cls-1 {
        stroke: #000;
        stroke-miterlimit: 10;
        stroke-width: 0.5px;
      }
    </style>
  </defs>
  <g id="Layer_2" data-name="Layer 2">
    <g id="Layer_4" data-name="Layer 4">
      <path class="cls-1" d="M32.81771,87.03765c-1.17968-2.29712-2.7113-3.86359-3.76886-7.5376a22.1655,22.1655,0,0,1-.83746-6.49072c.14343-21.63526-.00006-43.11579,0-64.90723a11.65461,11.65461,0,0,0-1.02075-4.08289c-.99536-2.3836-3.06293-3.797-6.3075-3.76879-4.01458.035-6.2901,3.11346-7.11889,4.50164a13.9984,13.9984,0,0,0-1.8844,6.90949c-.68885,37.36761.10473,55.79925-.41876,59.46338a23.47477,23.47477,0,0,1-.173,3.8125c-.61426,2.96271-2.671,3.89056-4.43323,5.60949A24.19531,24.19531,0,0,0,.99221,89.75957a16.49985,16.49985,0,0,0,1.8844,13.819c4.71,7.15332,13.45459,7.32648,14.86585,7.32825,5.37628.00677,12.681-2.33716,15.70337-8.37512C35.99716,97.43474,34.85079,90.99663,32.81771,87.03765ZM28.78714,98.65813A9.94534,9.94534,0,0,1,25.17538,102.27a11.66019,11.66019,0,0,1-6.80481,1.72735c-3.141-.20593-7.41223-1.84033-9.10791-5.54852a12.65862,12.65862,0,0,1-.70392-8.58453C9.60385,86.1007,10.833,85.572,13.12637,82.34484c1.72809-2.4317,2.00976-6.00952,2.20825-8.28864,1.05872-12.15869,1.832-45.74908.88983-57.8407a23.22617,23.22617,0,0,1,0-5.02508c.11542-1.12476.98651-3.80176,3.29773-4.554,1.15045-.37445,3.00977-.51037,3.7688.62812,1.46564,2.19848.81287,5.65539.78516,6.90948-.34949,15.80811.157,42.71314-.47107,56.53211-.04828,1.06152-.42743,6.18011,1.09924,10.52124a34.73518,34.73518,0,0,0,1.8844,4.23992c1.28833,2.39826,1.66949,2.43964,2.35547,3.7688A9.26425,9.26425,0,0,1,28.78714,98.65813Z"/>
    </g>
  </g>
</svg>
