<svg xmlns="http://www.w3.org/2000/svg" viewBox="0 0 52.07833 67.85708">
  <defs>
    <style>
      .cls-1 {
        stroke: #000;
        stroke-miterlimit: 10;
        stroke-width: 0.5px;
      }
    </style>
  </defs>
  <g id="Layer_2" data-name="Layer 2">
    <g id="Layer_2-2" data-name="Layer 2">
      <path class="cls-1" d="M.60149,5.66105c.23635-.09732,9.33625,5.82336,18.26893,4.42125a23.31781,23.31781,0,0,0,5.92281-1.83524c2.42394-1.18972,2.9659-2.08219,5.67254-3.92073C33.70055,2.129,35.87536.65176,38.55749.32219c5.18128-.63667,9.635,3.14215,9.50986,3.33679s-2.77116-2.45051-6.59017-2.33576C39.15327,1.393,37.4654,2.3788,35.05387,3.82581c-4.17594,2.50573-4.48541,3.919-7.84146,6.00623a19.86126,19.86126,0,0,1-8.342,3.17C13.24114,13.658,8.824,11.23743,6.10719,9.74863,2.904,7.99334.36513,5.75838.60149,5.66105Z"/>
      <path class="cls-1" d="M.26781,18.84138c.29231-.44329,3.775,2.636,9.59328,3.75388,1.65853.31867,7.717,1.48268,13.26374-1.41813a31.5614,31.5614,0,0,0,6.92385-4.92176,10.41344,10.41344,0,0,1,3.16995-2.586A11.75227,11.75227,0,0,1,38.919,12.6127a10.71562,10.71562,0,0,1,4.47686,1.64059,10.03223,10.03223,0,0,1,3.92073,5.08861,17.3742,17.3742,0,0,1,1.16788,8.84249,58.73583,58.73583,0,0,1-2.50259,9.59328,6.99761,6.99761,0,0,0-.16685,4.58809,5.87392,5.87392,0,0,0,2.52345,2.50259c1.8063.97479,3.18715.79293,3.27057,1.2726.0825.47435.17405,1.20915.21575,1.58453.13879,1.24914-3.83153.81311-5.59267-.93847A8.0035,8.0035,0,0,1,44.23,41.19788c-.07977-2.22692.52882-3.17422,1.33472-6.08964.96284-3.48317,1.984-7.17733,1.16788-11.26167a12.31826,12.31826,0,0,0-2.75286-5.92281,8.51244,8.51244,0,0,0-4.50466-3.00311,8.15672,8.15672,0,0,0-5.5057.75078c-1.80353.90194-1.74585,1.67266-4.171,4.00415a25.99965,25.99965,0,0,1-7.42437,5.0886,17.60148,17.60148,0,0,1-4.6715,1.41814,18.21537,18.21537,0,0,1-10.928-2.08549C2.9012,22.16071-.00558,19.256.26781,18.84138Z"/>
      <path class="cls-1" d="M1.15762,32.0217c.07692-.26844,3.40987-.08805,6.67359,1.6684a11.16137,11.16137,0,0,1,5.11641,4.78274c1.04683,2.12873.90584,4.02391.66736,7.22971a41.45627,41.45627,0,0,1-1.6684,8.56443c-.93017,3.03249-1.52,3.76062-1.22349,5.33887A5.85486,5.85486,0,0,0,14.616,64.16613a5.73819,5.73819,0,0,0,5.78377-1.89085c2.06856-2.52787,1.02785-6.5162,0-10.45528-1.11107-4.258-2.12294-4.54407-2.447-8.0083A11.28144,11.28144,0,0,1,19.17629,36.582a20.27409,20.27409,0,0,1,3.53144-3.80951,21.77151,21.77151,0,0,1,5.61693-3.8095,24.20067,24.20067,0,0,1,6.70139-2.72505,22.92466,22.92466,0,0,1,3.84558-.4883c.80957-.05924,1.05764.018.99277.04339-.99408.3893-2.79456.85506-4.70626,1.70316a32.371,32.371,0,0,0-5.318,3.01282c-1.62541,1.06961-4.09391,2.65278-5.512,3.765-2.40409,1.88555-3.19645,2.93649-3.81273,4.08757-.41108.76781-.82888,1.42082-.72731,4.12928.08342,2.22453.12245,2.67065,1.50155,6.54845,1.38887,3.9053,2.9591,6.80617,2.75286,10.26064a9.71666,9.71666,0,0,1-1.96037,5.79767,7.568,7.568,0,0,1-4.57418,2.40527,8.25609,8.25609,0,0,1-6.11745-1.6684,8.42945,8.42945,0,0,1-3.00311-5.45009c-.11049-1.19755.33267-2.59428,1.22349-5.33887,1.013-3.121,1.313-3.20655,1.89085-5.22764a16.37167,16.37167,0,0,0,.8898-6.896c-.14046-1.15836-.2279-4.20031-2.50259-6.36771A11.47347,11.47347,0,0,0,6.997,34.274C3.46182,32.34255,1.09665,32.23447,1.15762,32.0217Z"/>
    </g>
  </g>
</svg>
